<svg width="15" height="15" viewBox="0 0 15 15" fill="none" xmlns="http://www.w3.org/2000/svg">
<path fill-rule="evenodd" clip-rule="evenodd" d="M0 7.5C0 3.36466 3.36466 0 7.5 0C11.6353 0 15 3.36466 15 7.5C15 11.6353 11.6353 15 7.5 15C3.36466 15 0 11.6353 0 7.5ZM6.8985 10.282L11.6917 5.52632C11.9925 5.22556 11.9925 4.75564 11.6917 4.45489C11.391 4.15414 10.9211 4.15414 10.6203 4.45489L6.33459 8.7406L4.32331 6.8985C4.02256 6.61654 3.55263 6.63534 3.27068 6.93609C3.00752 7.23684 3.02632 7.70677 3.32707 7.98872L5.86466 10.3008C6.16541 10.5827 6.61654 10.5639 6.8985 10.282Z" fill="#013C5E"/>
</svg>
