<svg width="277" height="596" viewBox="0 0 277 596" fill="none" xmlns="http://www.w3.org/2000/svg">
<path d="M1.10906 59.1497C1.10906 48.7792 1.10992 41.0681 1.60904 34.9591C2.1071 28.8631 3.09578 24.4603 5.01751 20.6887C8.45548 13.9413 13.9413 8.45548 20.6887 5.01751C24.4603 3.09578 28.8631 2.1071 34.9591 1.60904C41.0681 1.10992 48.7793 1.10906 59.1497 1.10906H217.85C228.221 1.10906 235.932 1.10992 242.041 1.60904C248.137 2.1071 252.54 3.09578 256.311 5.01751C263.059 8.45548 268.545 13.9413 271.982 20.6887C273.904 24.4603 274.893 28.8631 275.391 34.9591C275.89 41.0681 275.891 48.7793 275.891 59.1497V536.85C275.891 547.221 275.89 554.932 275.391 561.041C274.893 567.137 273.904 571.54 271.982 575.311C268.545 582.059 263.059 587.545 256.311 590.982C252.54 592.904 248.137 593.893 242.041 594.391C235.932 594.89 228.221 594.891 217.85 594.891H59.1497C48.7793 594.891 41.0681 594.89 34.9591 594.391C28.8631 593.893 24.4603 592.904 20.6887 590.982C13.9413 587.545 8.45549 582.059 5.01751 575.311C3.09578 571.54 2.1071 567.137 1.60904 561.041C1.10992 554.932 1.10906 547.221 1.10906 536.85V59.1497Z" stroke="url(#paint0_linear_0_2061)" stroke-width="2.21811"/>
<defs>
<linearGradient id="paint0_linear_0_2061" x1="0" y1="0" x2="0" y2="596" gradientUnits="userSpaceOnUse">
<stop stop-color="#F6F6F6"/>
<stop offset="1" stop-color="#F1F1F2"/>
</linearGradient>
</defs>
</svg>
