<svg width="13" height="13" viewBox="0 0 13 13" fill="none" xmlns="http://www.w3.org/2000/svg">
<path fill-rule="evenodd" clip-rule="evenodd" d="M5.88455 0.0292544C6.0892 0.0109553 6.29977 0 6.5 0C8.5652 0 10.3978 0.969635 11.587 2.47007V1.69565C11.5827 1.3837 11.832 1.12728 12.1439 1.12271C12.2966 1.12047 12.4437 1.1801 12.5517 1.28802C12.6597 1.39594 12.7195 1.54297 12.7174 1.69565V3.95652C12.7174 4.26867 12.4643 4.52171 12.1522 4.52174H9.8913C9.68747 4.52462 9.49787 4.41753 9.39511 4.24146C9.29235 4.0654 9.29235 3.84764 9.39511 3.67158C9.49787 3.49552 9.68747 3.38842 9.8913 3.3913H10.8677C9.89556 2.02549 8.31158 1.13043 6.5 1.13043C6.34131 1.13043 6.15963 1.13966 5.98501 1.15527C5.78271 1.17536 5.5852 1.08527 5.46775 0.919326C5.35031 0.753383 5.33101 0.537155 5.41723 0.353042C5.50345 0.16893 5.68189 0.0452954 5.88455 0.0292544ZM0.916846 0.845493C1.01961 0.66943 1.20921 0.562335 1.41304 0.565217H3.67391C3.98606 0.565249 4.2391 0.818287 4.23913 1.13043V3.3913C4.24201 3.59514 4.13492 3.78474 3.95885 3.8875C3.78279 3.99026 3.56504 3.99026 3.38897 3.8875C3.21291 3.78474 3.10581 3.59514 3.1087 3.3913V2.33318C1.8993 3.31967 1.13043 4.82609 1.13043 6.5C1.13043 6.67042 1.1368 6.8517 1.14975 7.02216C1.16851 7.22538 1.07627 7.42292 0.908425 7.53901C0.740583 7.6551 0.523199 7.6717 0.339671 7.58246C0.156142 7.49321 0.0349661 7.31198 0.0226308 7.10827C0.00732355 6.90683 0 6.69923 0 6.5C0 4.60973 0.813086 2.88926 2.11901 1.69565H1.41304C1.20921 1.69853 1.01961 1.59144 0.916846 1.41538C0.814086 1.23931 0.814086 1.02156 0.916846 0.845493ZM12.448 5.64445C12.2885 5.63854 12.1339 5.70038 12.0224 5.81468C11.911 5.92899 11.853 6.08509 11.8629 6.24444C11.8671 6.33065 11.8696 6.41576 11.8696 6.5C11.8696 8.31154 10.9744 9.89555 9.6087 10.8677V9.8913C9.61078 9.73862 9.55101 9.59159 9.44299 9.48367C9.33497 9.37575 9.18788 9.31612 9.0352 9.31836C8.72326 9.32293 8.47399 9.57936 8.47826 9.8913V12.1522C8.47829 12.4643 8.73133 12.7174 9.04348 12.7174H11.3043C11.5082 12.7203 11.6978 12.6132 11.8005 12.4371C11.9033 12.2611 11.9033 12.0433 11.8005 11.8672C11.6978 11.6912 11.5082 11.5841 11.3043 11.587H10.5299C12.0303 10.3978 13 8.56524 13 6.5C13 6.39546 12.9972 6.29235 12.9923 6.19034C12.9823 5.89372 12.7446 5.65532 12.448 5.64445ZM0.282609 9.32609C0.28264 9.01394 0.535678 8.7609 0.847826 8.76087H3.1087C3.31253 8.75799 3.50213 8.86508 3.60489 9.04115C3.70765 9.21721 3.70765 9.43496 3.60489 9.61103C3.50213 9.78709 3.31253 9.89419 3.1087 9.8913H2.34477C3.331 11.0979 4.82827 11.8696 6.5 11.8696C6.58459 11.8696 6.67411 11.8677 6.76219 11.8646C7.07405 11.8535 7.33588 12.0973 7.34715 12.4091C7.35843 12.721 7.11488 12.983 6.80303 12.9945C6.7012 12.9981 6.59854 13 6.5 13C4.44809 13 2.60708 12.0369 1.41304 10.5349V11.587C1.41593 11.7908 1.30883 11.9804 1.13277 12.0832C0.956704 12.1859 0.738948 12.1859 0.562885 12.0832C0.386821 11.9804 0.279726 11.7908 0.282609 11.587V9.32609Z" fill="#1E5374"/>
</svg>
