<svg width="13" height="13" viewBox="0 0 13 13" fill="none" xmlns="http://www.w3.org/2000/svg">
<path fill-rule="evenodd" clip-rule="evenodd" d="M4.84412 0.78481C5.06168 0.56725 5.3553 0.445801 5.66262 0.445801H7.08135C7.38867 0.445801 7.68288 0.56725 7.89985 0.78481L8.15526 1.04023H11.1274C11.3418 1.0372 11.5412 1.14983 11.6492 1.33499C11.7573 1.52015 11.7573 1.74916 11.6492 1.93432C11.5412 2.11948 11.3418 2.23211 11.1274 2.22908H1.61657C1.40219 2.23211 1.2028 2.11948 1.09472 1.93432C0.986654 1.74916 0.986654 1.52015 1.09472 1.33499C1.2028 1.14983 1.40219 1.0372 1.61657 1.04023H4.5887L4.84412 0.78481ZM2.74157 11.3022L1.83367 3.41794H10.9103L10.0024 11.2976C9.92334 11.8914 9.41607 12.3343 8.82283 12.3343H3.91997C3.32673 12.3343 2.82003 11.8907 2.74157 11.3022Z" fill="#FF6B6B"/>
</svg>
