<svg width="14" height="14" viewBox="0 0 14 14" fill="none" xmlns="http://www.w3.org/2000/svg">
<path fill-rule="evenodd" clip-rule="evenodd" d="M5.20216 0.399219C5.45836 0.143019 5.80412 0 6.16602 0H7.83673C8.19863 0 8.54509 0.143019 8.80059 0.399219L9.10138 0.7H12.6014C12.8538 0.69643 13.0886 0.829063 13.2159 1.04711C13.3432 1.26516 13.3432 1.53484 13.2159 1.75289C13.0886 1.97094 12.8538 2.10357 12.6014 2.1H1.40138C1.14893 2.10357 0.914119 1.97094 0.786855 1.75289C0.65959 1.53484 0.65959 1.26516 0.786855 1.04711C0.914119 0.829063 1.14893 0.69643 1.40138 0.7H4.90138L5.20216 0.399219ZM2.72618 12.7846L1.65704 3.5H12.3457L11.2766 12.7791C11.1835 13.4784 10.5861 14 9.88751 14H4.11388C3.41528 14 2.81858 13.4776 2.72618 12.7846Z" fill="#FF6B6B"/>
</svg>
