<svg width="39" height="39" viewBox="0 0 39 39" fill="none" xmlns="http://www.w3.org/2000/svg">
<g opacity="0.859026">
<path d="M38.0902 18.5944C38.0902 28.852 29.7719 37.1703 19.5143 37.1703C9.25674 37.1703 0.938477 28.852 0.938477 18.5944C0.938477 8.33682 9.25674 0.0185547 19.5143 0.0185547C29.7719 0.0185547 38.0902 8.33682 38.0902 18.5944Z" fill="url(#paint0_linear_0_2116)"/>
<path d="M14.3135 25.2816V11.907L27.6881 18.5943L14.3135 25.2816Z" fill="white"/>
<path fill-rule="evenodd" clip-rule="evenodd" d="M13.5315 26.5456C13.7708 26.6935 14.042 26.7678 14.3132 26.7678C14.5406 26.7678 14.768 26.7158 14.9782 26.611L28.3528 19.9237C28.8559 19.6718 29.1739 19.1569 29.1739 18.5944C29.1739 18.0319 28.8559 17.517 28.3521 17.2651L14.9775 10.5778C14.5176 10.3475 13.9699 10.372 13.5315 10.6432C13.0939 10.9136 12.8271 11.3922 12.8271 11.9071V25.2817C12.8271 25.7966 13.0939 26.2751 13.5315 26.5456ZM24.365 18.5944L15.7993 22.8772V14.3115L24.365 18.5944Z" fill="white"/>
</g>
<defs>
<linearGradient id="paint0_linear_0_2116" x1="38.0902" y1="43.1331" x2="38.0902" y2="5.9814" gradientUnits="userSpaceOnUse">
<stop stop-color="#155CDE"/>
<stop offset="0.278" stop-color="#1F7FE5"/>
<stop offset="0.569" stop-color="#279CEB"/>
<stop offset="0.82" stop-color="#2CAFEF"/>
<stop offset="1" stop-color="#2EB5F0"/>
</linearGradient>
</defs>
</svg>
