<svg width="277" height="596" viewBox="0 0 277 596" fill="none" xmlns="http://www.w3.org/2000/svg">
<path fill-rule="evenodd" clip-rule="evenodd" d="M0 59.1497C0 38.4454 0 28.0932 4.02933 20.1852C7.57364 13.2291 13.2291 7.57364 20.1852 4.02933C28.0932 0 38.4454 0 59.1497 0H217.85C238.555 0 248.907 0 256.815 4.02933C263.771 7.57364 269.426 13.2291 272.971 20.1852C277 28.0932 277 38.4454 277 59.1497V536.85C277 557.555 277 567.907 272.971 575.815C269.426 582.771 263.771 588.426 256.815 591.971C248.907 596 238.555 596 217.85 596H59.1497C38.4454 596 28.0932 596 20.1852 591.971C13.2291 588.426 7.57364 582.771 4.02933 575.815C0 567.907 0 557.555 0 536.85V59.1497Z" fill="white"/>
</svg>
