<svg width="24" height="27" viewBox="0 0 24 27" fill="none" xmlns="http://www.w3.org/2000/svg">
<path fill-rule="evenodd" clip-rule="evenodd" d="M22.6096 11.2886L3.35823 0.284127C3.02633 0.0945418 2.65681 0 2.2873 0C2.28352 0 2.27978 0.000252886 2.27605 0.00050471C2.27235 0.000754425 2.26866 0.0010031 2.26498 0.0010031C2.21533 0.00150464 2.1658 0.00401238 2.1164 0.00789938C2.09408 0.0096548 2.07188 0.0120372 2.04956 0.0145449C2.01095 0.018808 1.97245 0.0241997 1.93408 0.0305944C1.92762 0.0317012 1.92112 0.0324562 1.91463 0.0332114C1.90714 0.0340817 1.89966 0.0349524 1.8922 0.0363622L1.89296 0.0373653C1.65309 0.0816269 1.41899 0.166138 1.20145 0.292402C0.535141 0.678971 0.125 1.39104 0.125 2.1613V24.1701C0.125 24.9404 0.535141 25.6524 1.20145 26.039C1.41887 26.1653 1.65297 26.2499 1.89283 26.2942L1.8922 26.295C1.89925 26.2964 1.90633 26.2972 1.91338 26.298C1.91889 26.2987 1.92438 26.2993 1.92982 26.3002C1.97107 26.3072 2.01245 26.313 2.05395 26.3174L2.05526 26.3175C2.07563 26.3197 2.09589 26.3219 2.11627 26.3235C2.16505 26.3274 2.2137 26.3296 2.2626 26.3303C2.26646 26.3303 2.2703 26.3306 2.27413 26.3308C2.27851 26.3311 2.28289 26.3314 2.2873 26.3314C2.65681 26.3314 3.02633 26.2369 3.35823 26.0473L22.6096 15.0427C23.2827 14.6579 23.6981 13.9422 23.6981 13.1666V13.1661V13.1656V13.1651V13.1646C23.6981 12.3892 23.2827 11.6735 22.6096 11.2886ZM14.9964 9.10322L13.0822 11.6143L8.21221 5.22513L14.9964 9.10322ZM8.21221 21.1061L21.6763 13.4098C21.7632 13.3601 21.8173 13.2668 21.8175 13.1665C21.8175 13.0666 21.7633 12.9733 21.6761 12.9235L16.6425 10.0463L8.21221 21.1061Z" fill="white"/>
</svg>
