<svg width="18" height="18" viewBox="0 0 18 18" fill="none" xmlns="http://www.w3.org/2000/svg">
<path fill-rule="evenodd" clip-rule="evenodd" d="M17.5924 16.4158L14.0232 12.8475C15.0876 11.5198 15.6665 9.86832 15.6641 8.16666C15.6641 4.02666 12.3041 0.666656 8.16406 0.666656C4.02406 0.666656 0.664062 4.02666 0.664062 8.16666C0.664062 12.3067 4.02406 15.6667 8.16406 15.6667C9.86573 15.6691 11.5172 15.0902 12.8449 14.0258L16.4132 17.595L17.5924 16.4158ZM13.9974 8.16666C13.9998 9.68368 13.4092 11.1416 12.3516 12.2292L12.2266 12.3542C11.139 13.4117 9.68109 14.0024 8.16406 14C4.94073 14 2.33073 11.3892 2.33073 8.16666C2.33073 4.94332 4.94073 2.33332 8.16406 2.33332C11.3866 2.33332 13.9974 4.94332 13.9974 8.16666Z" fill="#0086CA"/>
</svg>
